<svg width="110" height="78" viewBox="0 0 110 78" fill="none" xmlns="http://www.w3.org/2000/svg">
<path fill-rule="evenodd" clip-rule="evenodd" d="M68.5 10L70 8L55 0L40 8L41.5 10L55 3L68.5 10ZM34 4.5L31.5 3V32.8895L12 24.5L24.5 48H83.5L97.5 24.5L76.9835 33.4307L76.5 3L74.5 4.06667L74.9887 34.299L55 43L34 33.9651V4.5ZM60 31H57.5V10L60 11V31ZM64.5 11H67V26.313L67.5 27H68V28L67 28.5H66L65 27.5L64.5 27V11.0532V11ZM45 12.5L55.5 8V11L48.5 14.5V20L52.5 19V21L48.5 23V25L55 29V32L45 27.5V12.5ZM35 78H45.5V77H35V78ZM60 78H70.5V77H60V78ZM99.5 78H84V77H99.5V78ZM24.5 78H9V77H24.5V78ZM21.5 47L19.5 44.5H0L1.5 47H21.5ZM88 46.5L89.5 44.5H109.5L107.5 46.5H88ZM26.8678 60.3622H29.524C29.4151 59.5526 29.1831 58.8329 28.828 58.2031C28.4776 57.5687 28.0302 57.0336 27.4857 56.598C26.9411 56.1577 26.3209 55.8239 25.6249 55.5966C24.9288 55.3693 24.176 55.2557 23.3663 55.2557C22.0974 55.2557 20.961 55.5516 19.9572 56.1435C18.9535 56.7353 18.1604 57.59 17.578 58.7074C16.9956 59.8201 16.7044 61.16 16.7044 62.7273C16.7044 64.2898 16.9932 65.6297 17.5709 66.7472C18.1485 67.8646 18.9393 68.7192 19.943 69.3111C20.9468 69.9029 22.0879 70.1989 23.3663 70.1989C24.2328 70.1989 25.0212 70.071 25.7314 69.8153C26.4416 69.5549 27.0619 69.1951 27.5922 68.7358C28.1225 68.2718 28.551 67.7367 28.8777 67.1307C29.2091 66.5246 29.4246 65.8759 29.524 65.1847L26.8678 65.1705C26.7873 65.5966 26.6405 65.9754 26.4274 66.3068C26.2191 66.6383 25.961 66.9176 25.6533 67.1449C25.3502 67.3722 25.007 67.545 24.6234 67.6634C24.2446 67.777 23.8375 67.8338 23.4018 67.8338C22.6159 67.8338 21.9175 67.642 21.3067 67.2585C20.7006 66.8703 20.2224 66.2973 19.872 65.5398C19.5264 64.7775 19.3535 63.84 19.3535 62.7273C19.3535 61.6335 19.5264 60.7079 19.872 59.9503C20.2177 59.188 20.6959 58.6103 21.3067 58.2173C21.9175 57.8196 22.6182 57.6207 23.4089 57.6207C23.854 57.6207 24.2683 57.6823 24.6518 57.8054C25.0401 57.9238 25.3857 58.1013 25.6888 58.3381C25.9918 58.5748 26.2451 58.8636 26.4487 59.2045C26.6523 59.5407 26.792 59.9266 26.8678 60.3622ZM35.137 55.4545V70H37.7719V64.6733H40.4532L43.3117 70H46.2521L43.106 64.2415C43.2006 64.2033 43.2929 64.1626 43.3827 64.1193C44.1498 63.7453 44.7298 63.2173 45.1228 62.5355C45.5205 61.849 45.7194 61.0393 45.7194 60.1065C45.7194 59.1785 45.5229 58.3665 45.1299 57.6705C44.7416 56.9697 44.1664 56.4252 43.404 56.0369C42.6465 55.6487 41.709 55.4545 40.5915 55.4545H35.137ZM37.7719 62.4858V57.6562H40.1867C40.8449 57.6562 41.3823 57.7533 41.7989 57.9474C42.2156 58.1368 42.5257 58.4162 42.7293 58.7855C42.9329 59.1501 43.0347 59.5904 43.0347 60.1065C43.0347 60.6226 42.9329 61.0582 42.7293 61.4134C42.5305 61.7637 42.2227 62.0312 41.806 62.2159C41.3894 62.3958 40.8543 62.4858 40.2009 62.4858H37.7719ZM60.9542 70H63.2979V55.4545H60.6772V65.3693H60.5494L53.7028 55.4545H51.3448V70H53.9798V60.0923H54.1005L60.9542 70ZM68.4244 70H71.2369L72.4398 66.4134H77.9083L79.1133 70H81.9258L76.798 55.4545H73.5452L68.4244 70ZM77.1971 64.2969L75.2284 58.4375H75.1148L73.1497 64.2969H77.1971ZM93.8741 58.0043C94.3665 58.3499 94.6459 58.8329 94.7121 59.4531H97.2477C97.2335 58.634 97.0038 57.9096 96.5587 57.2798C96.1137 56.6454 95.5005 56.1506 94.7192 55.7955C93.9427 55.4356 93.0384 55.2557 92.0062 55.2557C90.9882 55.2557 90.0767 55.4356 89.2718 55.7955C88.4669 56.1506 87.83 56.6501 87.3613 57.294C86.8973 57.938 86.6653 58.6884 86.6653 59.5455C86.6653 60.5871 87.0109 61.4228 87.7022 62.0526C88.3982 62.6776 89.3452 63.1439 90.5431 63.4517L92.1979 63.8778C92.7188 64.0104 93.1733 64.1619 93.5616 64.3324C93.9546 64.4981 94.26 64.7064 94.4778 64.9574C94.6956 65.2036 94.8068 65.5161 94.8116 65.8949C94.8068 66.3116 94.6814 66.6761 94.4352 66.9886C94.1889 67.2964 93.848 67.5379 93.4124 67.7131C92.9816 67.8835 92.4797 67.9688 91.9067 67.9688C91.3575 67.9688 90.8603 67.8859 90.4153 67.7202C89.9749 67.5545 89.6174 67.3035 89.3428 66.9673C89.0682 66.6312 88.912 66.2098 88.8741 65.7031H86.2817C86.3196 66.669 86.5706 67.4882 87.0346 68.1605C87.5033 68.8329 88.152 69.3442 88.9806 69.6946C89.8139 70.045 90.7964 70.2202 91.9281 70.2202C93.0928 70.2202 94.0848 70.0402 94.9039 69.6804C95.7278 69.3158 96.3575 68.8116 96.7931 68.1676C97.2287 67.5189 97.4465 66.7685 97.4465 65.9162C97.4465 65.2865 97.3281 64.7372 97.0914 64.2685C96.8547 63.7997 96.5327 63.3996 96.1255 63.0682C95.723 62.7367 95.2661 62.4621 94.7548 62.2443C94.2481 62.0265 93.7202 61.8537 93.171 61.7259L91.8073 61.3849C91.509 61.3139 91.2131 61.2263 90.9195 61.1222C90.626 61.018 90.3585 60.8902 90.117 60.7386C89.8755 60.5824 89.6837 60.393 89.5417 60.1705C89.4044 59.9479 89.3357 59.6851 89.3357 59.3821C89.3405 59.0175 89.447 58.6932 89.6553 58.4091C89.8637 58.125 90.1643 57.9001 90.5573 57.7344C90.9503 57.5687 91.4214 57.4858 91.9707 57.4858C92.7519 57.4858 93.3864 57.6586 93.8741 58.0043Z" fill="white"/>
</svg>
